<?xml version="1.0" encoding="UTF-8" standalone="no"?>
<!-- Created with Inkscape (http://www.inkscape.org/) -->

<svg
   xmlns:dc="http://purl.org/dc/elements/1.1/"
   xmlns:cc="http://creativecommons.org/ns#"
   xmlns:rdf="http://www.w3.org/1999/02/22-rdf-syntax-ns#"
   xmlns:svg="http://www.w3.org/2000/svg"
   xmlns="http://www.w3.org/2000/svg"
   xmlns:xlink="http://www.w3.org/1999/xlink"
   version="1.1"
   width="48"
   height="48"
   id="svg2">
  <metadata
     id="metadata8">
    <rdf:RDF>
      <cc:Work
         rdf:about="">
        <dc:format>image/svg+xml</dc:format>
        <dc:type
           rdf:resource="http://purl.org/dc/dcmitype/StillImage" />
        <dc:title></dc:title>
      </cc:Work>
    </rdf:RDF>
  </metadata>
  <defs
     id="defs6">
    <linearGradient
       id="linearGradient3877">
      <stop
         id="stop3879"
         style="stop-color:#eff7fc;stop-opacity:1"
         offset="0" />
      <stop
         id="stop3881"
         style="stop-color:#ffffff;stop-opacity:1"
         offset="1" />
    </linearGradient>
    <linearGradient
       id="linearGradient3829">
      <stop
         id="stop3831"
         style="stop-color:#1f96d4;stop-opacity:1"
         offset="0" />
      <stop
         id="stop3833"
         style="stop-color:#37aee2;stop-opacity:1"
         offset="1" />
    </linearGradient>
    <linearGradient
       id="linearGradient3821">
      <stop
         id="stop3823"
         style="stop-color:#37aee2;stop-opacity:1"
         offset="0" />
      <stop
         id="stop3825"
         style="stop-color:#1e96c8;stop-opacity:1"
         offset="1" />
    </linearGradient>
    <linearGradient
       id="linearGradient3783">
      <stop
         id="stop3785"
         style="stop-color:#1e94d3;stop-opacity:1"
         offset="0" />
      <stop
         id="stop3803"
         style="stop-color:#1e94d3;stop-opacity:1"
         offset="1" />
    </linearGradient>
    <linearGradient
       x1="-10"
       y1="90"
       x2="30"
       y2="50"
       id="linearGradient3827"
       xlink:href="#linearGradient3783"
       gradientUnits="userSpaceOnUse" />
    <linearGradient
       x1="-10"
       y1="90"
       x2="30"
       y2="50"
       id="linearGradient3827-7"
       xlink:href="#linearGradient3783-1"
       gradientUnits="userSpaceOnUse" />
    <linearGradient
       id="linearGradient3783-1">
      <stop
         id="stop3785-2"
         style="stop-color:#1e94d3;stop-opacity:1"
         offset="0" />
      <stop
         id="stop3803-6"
         style="stop-color:#1e94d3;stop-opacity:1"
         offset="1" />
    </linearGradient>
    <linearGradient
       x1="16.666666"
       y1="56.666668"
       x2="6.6666665"
       y2="80"
       id="linearGradient3873"
       xlink:href="#linearGradient3821"
       gradientUnits="userSpaceOnUse" />
    <linearGradient
       x1="135"
       y1="120"
       x2="160"
       y2="160"
       id="linearGradient3883"
       xlink:href="#linearGradient3877"
       gradientUnits="userSpaceOnUse"
       gradientTransform="translate(0,-192)" />
    <linearGradient
       x1="16.666666"
       y1="56.666668"
       x2="6.6666665"
       y2="80"
       id="linearGradient3011"
       xlink:href="#linearGradient3821"
       gradientUnits="userSpaceOnUse" />
    <linearGradient
       x1="135"
       y1="120"
       x2="160"
       y2="160"
       id="linearGradient3013"
       xlink:href="#linearGradient3877"
       gradientUnits="userSpaceOnUse"
       gradientTransform="translate(0,-192)" />
  </defs>
  <g
     transform="matrix(0.18333333,0,0,0.18333333,2.0000004,37.2)"
     id="g3005">
    <path
       d="m 30,70 a 20,20 0 1 1 -40,0 20,20 0 1 1 40,0 z"
       transform="matrix(6,0,0,6,60,-492)"
       id="path2995-1-0"
       style="fill:url(#linearGradient3011);fill-opacity:1;stroke:none" />
    <path
       d="m 98,-17 c -3.887644,0 -3.226996,-1.46793 -4.567796,-5.16949 l -11.440678,-37.62712 70.805084,-44.23729 8.26271,2.16102 -6.8644,18.81356 z"
       id="path2993"
       style="fill:#c8daea;fill-opacity:1;stroke:none" />
    <path
       d="m 98,-17 c 3,0 4.32989,-1.36747 6,-3 2.57835,-2.52034 36,-35 36,-35 l -20.47193,-4.95511 -19,12 L 98,-18 z"
       id="path2989"
       style="fill:#a9c9dd;fill-opacity:1;stroke:none" />
    <path
       d="m 100.04237,-47.59322 48.36017,35.72884 c 5.51851,3.04487 9.5014,1.46836 10.87626,-5.12353 l 19.68513,-92.76282 c 2.01542,-8.08022 -3.08008,-11.74519 -8.35944,-9.34819 L 55.010511,-74.51524 c -7.890082,3.1647 -7.844107,7.56662 -1.438184,9.52797 l 29.662531,9.2583 68.673252,-43.325271 c 3.24187,-1.965879 6.21727,-0.908988 3.77523,1.25841 z"
       id="path2991"
       style="fill:url(#linearGradient3013);fill-opacity:1;stroke:none" />
  </g>
</svg>
